<mxfile host="app.diagrams.net" agent="Mozilla/5.0 (Windows NT 10.0; Win64; x64) AppleWebKit/537.36 (KHTML, like Gecko) Chrome/127.0.0.0 Safari/537.36 Edg/127.0.0.0" version="24.7.6">
  <diagram name="第 1 页" id="ls3zqgrq5O7pMUxy5dv7">
    <mxGraphModel dx="1426" dy="791" grid="1" gridSize="10" guides="1" tooltips="1" connect="1" arrows="1" fold="1" page="1" pageScale="1" pageWidth="1200" pageHeight="1600" math="0" shadow="0">
      <root>
        <mxCell id="0" />
        <mxCell id="1" parent="0" />
        <mxCell id="F-oqcZXbBVfvfYFqbWdS-7" style="edgeStyle=orthogonalEdgeStyle;rounded=0;orthogonalLoop=1;jettySize=auto;html=1;exitX=0.5;exitY=1;exitDx=0;exitDy=0;entryX=0.5;entryY=0;entryDx=0;entryDy=0;" edge="1" parent="1" source="F-oqcZXbBVfvfYFqbWdS-3" target="F-oqcZXbBVfvfYFqbWdS-4">
          <mxGeometry relative="1" as="geometry" />
        </mxCell>
        <mxCell id="F-oqcZXbBVfvfYFqbWdS-3" value="点击导入按钮" style="rounded=0;whiteSpace=wrap;html=1;" vertex="1" parent="1">
          <mxGeometry x="360" y="100" width="120" height="60" as="geometry" />
        </mxCell>
        <mxCell id="F-oqcZXbBVfvfYFqbWdS-8" style="edgeStyle=orthogonalEdgeStyle;rounded=0;orthogonalLoop=1;jettySize=auto;html=1;exitX=0.5;exitY=1;exitDx=0;exitDy=0;entryX=0.5;entryY=0;entryDx=0;entryDy=0;" edge="1" parent="1" source="F-oqcZXbBVfvfYFqbWdS-4" target="F-oqcZXbBVfvfYFqbWdS-5">
          <mxGeometry relative="1" as="geometry" />
        </mxCell>
        <mxCell id="F-oqcZXbBVfvfYFqbWdS-4" value="基于资源模型生成Excel模板" style="rounded=1;whiteSpace=wrap;html=1;" vertex="1" parent="1">
          <mxGeometry x="360" y="220" width="120" height="60" as="geometry" />
        </mxCell>
        <mxCell id="F-oqcZXbBVfvfYFqbWdS-9" style="edgeStyle=orthogonalEdgeStyle;rounded=0;orthogonalLoop=1;jettySize=auto;html=1;exitX=0.5;exitY=1;exitDx=0;exitDy=0;entryX=0.5;entryY=0;entryDx=0;entryDy=0;" edge="1" parent="1" source="F-oqcZXbBVfvfYFqbWdS-5" target="F-oqcZXbBVfvfYFqbWdS-6">
          <mxGeometry relative="1" as="geometry" />
        </mxCell>
        <mxCell id="F-oqcZXbBVfvfYFqbWdS-5" value="填写导入内容" style="rounded=0;whiteSpace=wrap;html=1;" vertex="1" parent="1">
          <mxGeometry x="360" y="340" width="120" height="60" as="geometry" />
        </mxCell>
        <mxCell id="F-oqcZXbBVfvfYFqbWdS-10" style="edgeStyle=orthogonalEdgeStyle;rounded=0;orthogonalLoop=1;jettySize=auto;html=1;exitX=0;exitY=0.5;exitDx=0;exitDy=0;entryX=0;entryY=0.5;entryDx=0;entryDy=0;" edge="1" parent="1" source="F-oqcZXbBVfvfYFqbWdS-6" target="F-oqcZXbBVfvfYFqbWdS-5">
          <mxGeometry relative="1" as="geometry">
            <Array as="points">
              <mxPoint x="280" y="500" />
              <mxPoint x="280" y="370" />
            </Array>
          </mxGeometry>
        </mxCell>
        <mxCell id="F-oqcZXbBVfvfYFqbWdS-11" value="校验不通过&lt;div&gt;重新填写&lt;/div&gt;" style="edgeLabel;html=1;align=center;verticalAlign=middle;resizable=0;points=[];" vertex="1" connectable="0" parent="F-oqcZXbBVfvfYFqbWdS-10">
          <mxGeometry y="1" relative="1" as="geometry">
            <mxPoint as="offset" />
          </mxGeometry>
        </mxCell>
        <mxCell id="F-oqcZXbBVfvfYFqbWdS-14" style="edgeStyle=orthogonalEdgeStyle;rounded=0;orthogonalLoop=1;jettySize=auto;html=1;exitX=0.5;exitY=1;exitDx=0;exitDy=0;entryX=0.5;entryY=0;entryDx=0;entryDy=0;" edge="1" parent="1" source="F-oqcZXbBVfvfYFqbWdS-6" target="F-oqcZXbBVfvfYFqbWdS-13">
          <mxGeometry relative="1" as="geometry" />
        </mxCell>
        <mxCell id="F-oqcZXbBVfvfYFqbWdS-15" value="校验通过并上传" style="edgeLabel;html=1;align=center;verticalAlign=middle;resizable=0;points=[];" vertex="1" connectable="0" parent="F-oqcZXbBVfvfYFqbWdS-14">
          <mxGeometry x="-0.1667" y="2" relative="1" as="geometry">
            <mxPoint as="offset" />
          </mxGeometry>
        </mxCell>
        <mxCell id="F-oqcZXbBVfvfYFqbWdS-6" value="校验模板&lt;div&gt;格式与大小&lt;/div&gt;" style="rhombus;whiteSpace=wrap;html=1;" vertex="1" parent="1">
          <mxGeometry x="360" y="460" width="120" height="80" as="geometry" />
        </mxCell>
        <mxCell id="F-oqcZXbBVfvfYFqbWdS-13" value="服务端存储" style="rounded=1;whiteSpace=wrap;html=1;" vertex="1" parent="1">
          <mxGeometry x="360" y="600" width="120" height="60" as="geometry" />
        </mxCell>
      </root>
    </mxGraphModel>
  </diagram>
</mxfile>
